<mxfile host="drawio-plugin" modified="2022-12-10T01:07:52.738Z" agent="5.0 (Windows NT 6.2; Win64; x64) AppleWebKit/537.36 (KHTML, like Gecko) Chrome/98.0.4758.102 Safari/537.36" etag="7hDayQ5ExlHD7FegVJSR" version="15.5.4" type="embed" pages="2"><diagram id="d1_gXE-z1BDYVVr-U6k7" name="ModelListeners"><mxGraphModel dx="858" dy="735" grid="1" gridSize="10" guides="1" tooltips="1" connect="1" arrows="1" fold="1" page="1" pageScale="1" pageWidth="850" pageHeight="1100" math="0" shadow="0"><root><mxCell id="0"/><mxCell id="1" parent="0"/><mxCell id="2" value="&lt;&lt;Interface&gt;&gt;&#10;ModelListener" style="swimlane;fontStyle=0;childLayout=stackLayout;horizontal=1;startSize=40;fillColor=none;horizontalStack=0;resizeParent=1;resizeParentMax=0;resizeLast=0;collapsible=1;marginBottom=0;" parent="1" vertex="1"><mxGeometry x="310" y="180" width="200" height="66" as="geometry"/></mxCell><mxCell id="3" value="+ handleModelEvent(ModelEvent)" style="text;strokeColor=none;fillColor=none;align=left;verticalAlign=top;spacingLeft=4;spacingRight=4;overflow=hidden;rotatable=0;points=[[0,0.5],[1,0.5]];portConstraint=eastwest;" parent="2" vertex="1"><mxGeometry y="40" width="200" height="26" as="geometry"/></mxCell><mxCell id="6" value="&lt;&lt;Interface&gt;&gt;&#10;HandChangeListener" style="swimlane;fontStyle=0;childLayout=stackLayout;horizontal=1;startSize=40;fillColor=none;horizontalStack=0;resizeParent=1;resizeParentMax=0;resizeLast=0;collapsible=1;marginBottom=0;" parent="1" vertex="1"><mxGeometry x="45" y="320" width="270" height="66" as="geometry"/></mxCell><mxCell id="7" value="+ handleHandChangeEvent(HandChangeEvent)" style="text;strokeColor=none;fillColor=none;align=left;verticalAlign=top;spacingLeft=4;spacingRight=4;overflow=hidden;rotatable=0;points=[[0,0.5],[1,0.5]];portConstraint=eastwest;" parent="6" vertex="1"><mxGeometry y="40" width="270" height="26" as="geometry"/></mxCell><mxCell id="8" value="" style="endArrow=block;endSize=16;endFill=0;html=1;rounded=0;" parent="1" source="6" target="2" edge="1"><mxGeometry width="160" relative="1" as="geometry"><mxPoint x="90" y="230" as="sourcePoint"/><mxPoint x="250" y="230" as="targetPoint"/></mxGeometry></mxCell><mxCell id="10" value="Default implementation of handleModelEvent: typecasts to subclass' relevant event, otherwise ignore model event." style="shape=note;whiteSpace=wrap;html=1;backgroundOutline=1;darkOpacity=0.05;size=11;" parent="1" vertex="1"><mxGeometry x="45" y="460" width="255" height="70" as="geometry"/></mxCell><mxCell id="11" value="" style="endArrow=none;dashed=1;html=1;dashPattern=1 3;strokeWidth=2;rounded=0;" parent="1" source="6" target="10" edge="1"><mxGeometry width="50" height="50" relative="1" as="geometry"><mxPoint x="150" y="220" as="sourcePoint"/><mxPoint x="200" y="170" as="targetPoint"/></mxGeometry></mxCell><mxCell id="12" value="&lt;&lt;Interface&gt;&gt;&#10;SModel" style="swimlane;fontStyle=0;childLayout=stackLayout;horizontal=1;startSize=40;fillColor=none;horizontalStack=0;resizeParent=1;resizeParentMax=0;resizeLast=0;collapsible=1;marginBottom=0;" parent="1" vertex="1"><mxGeometry x="305" y="20" width="210" height="92" as="geometry"/></mxCell><mxCell id="13" value="+ addModelListener(ModelListener)" style="text;strokeColor=none;fillColor=none;align=left;verticalAlign=top;spacingLeft=4;spacingRight=4;overflow=hidden;rotatable=0;points=[[0,0.5],[1,0.5]];portConstraint=eastwest;" parent="12" vertex="1"><mxGeometry y="40" width="210" height="26" as="geometry"/></mxCell><mxCell id="14" value="+ notifyModelListeners(ModelEvent)" style="text;strokeColor=none;fillColor=none;align=left;verticalAlign=top;spacingLeft=4;spacingRight=4;overflow=hidden;rotatable=0;points=[[0,0.5],[1,0.5]];portConstraint=eastwest;" parent="12" vertex="1"><mxGeometry y="66" width="210" height="26" as="geometry"/></mxCell><mxCell id="15" value="&lt;&lt;Interface&gt;&gt;&#10;BoardChangeListener" style="swimlane;fontStyle=0;childLayout=stackLayout;horizontal=1;startSize=40;fillColor=none;horizontalStack=0;resizeParent=1;resizeParentMax=0;resizeLast=0;collapsible=1;marginBottom=0;" parent="1" vertex="1"><mxGeometry x="480" y="310" width="270" height="66" as="geometry"/></mxCell><mxCell id="16" value="+ handleBoardChangeEvent(BoardChangeEvent)" style="text;strokeColor=none;fillColor=none;align=left;verticalAlign=top;spacingLeft=4;spacingRight=4;overflow=hidden;rotatable=0;points=[[0,0.5],[1,0.5]];portConstraint=eastwest;" parent="15" vertex="1"><mxGeometry y="40" width="270" height="26" as="geometry"/></mxCell><mxCell id="17" value="" style="endArrow=block;endSize=16;endFill=0;html=1;rounded=0;" parent="1" source="15" target="2" edge="1"><mxGeometry width="160" relative="1" as="geometry"><mxPoint x="155" y="190" as="sourcePoint"/><mxPoint x="155" y="116" as="targetPoint"/></mxGeometry></mxCell></root></mxGraphModel></diagram><diagram id="3WXyElbC4WaoULnwmzKZ" name="ControllerListeners"><mxGraphModel dx="858" dy="735" grid="1" gridSize="10" guides="1" tooltips="1" connect="1" arrows="1" fold="1" page="1" pageScale="1" pageWidth="850" pageHeight="1100" math="0" shadow="0"><root><mxCell id="xbrdhIP_nh14nO9Mreok-0"/><mxCell id="xbrdhIP_nh14nO9Mreok-1" parent="xbrdhIP_nh14nO9Mreok-0"/><mxCell id="90xqtTonnIcONzjAt5ET-0" value="&lt;&lt;Interface&gt;&gt;&#10;SController" style="swimlane;fontStyle=0;childLayout=stackLayout;horizontal=1;startSize=40;fillColor=none;horizontalStack=0;resizeParent=1;resizeParentMax=0;resizeLast=0;collapsible=1;marginBottom=0;" parent="xbrdhIP_nh14nO9Mreok-1" vertex="1"><mxGeometry x="280" y="40" width="250" height="92" as="geometry"/></mxCell><mxCell id="90xqtTonnIcONzjAt5ET-1" value="+ addControllerListener(SControllerListener)" style="text;strokeColor=none;fillColor=none;align=left;verticalAlign=top;spacingLeft=4;spacingRight=4;overflow=hidden;rotatable=0;points=[[0,0.5],[1,0.5]];portConstraint=eastwest;" parent="90xqtTonnIcONzjAt5ET-0" vertex="1"><mxGeometry y="40" width="250" height="26" as="geometry"/></mxCell><mxCell id="90xqtTonnIcONzjAt5ET-2" value="+ notifyControllerListeners()" style="text;strokeColor=none;fillColor=none;align=left;verticalAlign=top;spacingLeft=4;spacingRight=4;overflow=hidden;rotatable=0;points=[[0,0.5],[1,0.5]];portConstraint=eastwest;" parent="90xqtTonnIcONzjAt5ET-0" vertex="1"><mxGeometry y="66" width="250" height="26" as="geometry"/></mxCell><mxCell id="Il46mOrOJNQ2inaBDID4-0" value="&lt;&lt;Interface&gt;&gt;&#10;SControllerListener" style="swimlane;fontStyle=0;childLayout=stackLayout;horizontal=1;startSize=40;fillColor=none;horizontalStack=0;resizeParent=1;resizeParentMax=0;resizeLast=0;collapsible=1;marginBottom=0;" parent="xbrdhIP_nh14nO9Mreok-1" vertex="1"><mxGeometry x="290" y="210" width="230" height="66" as="geometry"/></mxCell><mxCell id="Il46mOrOJNQ2inaBDID4-1" value="+ handleControllerEvent(ControllerEvent)" style="text;strokeColor=none;fillColor=none;align=left;verticalAlign=top;spacingLeft=4;spacingRight=4;overflow=hidden;rotatable=0;points=[[0,0.5],[1,0.5]];portConstraint=eastwest;" parent="Il46mOrOJNQ2inaBDID4-0" vertex="1"><mxGeometry y="40" width="230" height="26" as="geometry"/></mxCell><mxCell id="WCnLdE5Sy750lmjExO29-0" value="&lt;&lt;Interface&gt;&gt;&#10;BoardClickListener" style="swimlane;fontStyle=0;childLayout=stackLayout;horizontal=1;startSize=40;fillColor=none;horizontalStack=0;resizeParent=1;resizeParentMax=0;resizeLast=0;collapsible=1;marginBottom=0;" parent="xbrdhIP_nh14nO9Mreok-1" vertex="1"><mxGeometry x="270" y="390" width="270" height="66" as="geometry"/></mxCell><mxCell id="WCnLdE5Sy750lmjExO29-1" value="+ handleBoardClickEvent(C_BoardClickEvent)" style="text;strokeColor=none;fillColor=none;align=left;verticalAlign=top;spacingLeft=4;spacingRight=4;overflow=hidden;rotatable=0;points=[[0,0.5],[1,0.5]];portConstraint=eastwest;" parent="WCnLdE5Sy750lmjExO29-0" vertex="1"><mxGeometry y="40" width="270" height="26" as="geometry"/></mxCell><mxCell id="0UvHaTs1bZQlthkUgPWX-0" value="" style="endArrow=block;endSize=16;endFill=0;html=1;rounded=0;" parent="xbrdhIP_nh14nO9Mreok-1" source="WCnLdE5Sy750lmjExO29-0" target="Il46mOrOJNQ2inaBDID4-0" edge="1"><mxGeometry width="160" relative="1" as="geometry"><mxPoint x="390" y="630" as="sourcePoint"/><mxPoint x="390" y="556" as="targetPoint"/></mxGeometry></mxCell></root></mxGraphModel></diagram></mxfile>